<?xml version="1.0" standalone="no"?>
<!DOCTYPE svg PUBLIC "-//W3C//DTD SVG 20010904//EN"
 "http://www.w3.org/TR/2001/REC-SVG-20010904/DTD/svg10.dtd">
<svg version="1.0" xmlns="http://www.w3.org/2000/svg"
 width="740.000000pt" height="740.000000pt" viewBox="0 0 740.000000 740.000000"
 preserveAspectRatio="xMidYMid meet">

<g transform="translate(0.000000,740.000000) scale(0.100000,-0.100000)"
fill="#000000" stroke="none">
<path d="M3688 5931 c22 -19 150 -66 158 -58 5 4 -123 63 -156 71 l-25 7 23
-20z"/>
<path d="M3648 5904 c28 -14 60 -24 69 -22 10 2 -8 13 -43 26 -81 29 -90 28
-26 -4z"/>
<path d="M3255 5911 c-30 -7 -30 -7 -5 -12 14 -3 46 -5 72 -4 34 1 45 -2 41
-12 -3 -7 3 -16 12 -19 13 -5 14 -9 3 -16 -13 -9 -7 -17 37 -43 12 -8 4 -10
-33 -10 -28 0 -48 3 -46 6 4 7 -26 18 -64 24 -12 2 -20 -1 -17 -6 4 -5 11 -9
16 -9 6 0 27 -11 47 -25 23 -16 51 -25 74 -25 20 0 40 -5 44 -11 4 -8 -4 -9
-27 -4 -32 7 -33 6 -14 -9 28 -21 12 -20 -35 4 -21 11 -41 16 -45 11 -5 -8 92
-51 115 -51 5 0 21 -11 37 -26 l27 -25 -27 10 c-15 6 -39 17 -55 24 -29 15
-104 32 -86 19 17 -11 25 -42 11 -43 -7 0 -6 -3 3 -7 8 -4 35 -19 60 -34 51
-30 199 -83 207 -74 4 3 13 0 22 -7 9 -8 35 -25 59 -38 37 -20 45 -21 52 -9 8
13 10 12 10 -2 0 -10 9 -22 21 -28 32 -18 99 -81 99 -94 0 -6 -7 -3 -15 8 -7
10 -18 15 -23 12 -10 -6 -30 12 -30 27 0 5 -3 11 -6 13 -3 2 -4 1 -1 -3 10
-13 -16 -31 -38 -26 -22 5 -22 5 -2 -11 20 -17 20 -17 -2 -6 -12 5 -24 14 -28
19 -6 11 -65 12 -65 1 0 -3 6 -12 13 -19 10 -10 9 -11 -3 -6 -9 3 -21 15 -29
27 -11 18 -11 20 4 15 10 -4 14 -3 10 4 -4 5 -15 7 -26 4 -10 -4 -19 -2 -19 3
0 13 -93 54 -126 56 -16 0 -43 11 -61 24 -41 29 -96 41 -87 19 3 -8 12 -18 20
-21 10 -4 12 -2 8 5 -4 7 -1 10 7 7 8 -3 14 -10 14 -17 0 -7 18 -23 40 -35 23
-11 54 -34 70 -49 16 -15 34 -27 40 -27 5 1 -3 12 -20 25 -16 14 -25 25 -20
25 6 0 35 -25 65 -55 30 -31 60 -53 67 -50 7 2 13 0 13 -4 0 -13 -29 -22 -35
-10 -9 13 -113 79 -126 79 -6 0 -7 -6 -3 -12 5 -9 2 -9 -9 1 -20 16 -23 26 -4
15 8 -5 8 -2 -2 9 -16 20 -35 23 -26 5 4 -7 0 -6 -7 2 -19 21 -99 63 -106 55
-3 -3 4 -8 16 -12 12 -3 22 -9 22 -14 0 -4 16 -19 35 -32 19 -13 32 -26 29
-29 -7 -7 66 -58 82 -58 6 0 17 -7 24 -15 12 -14 6 -16 -47 -13 -34 2 -60 7
-60 12 1 5 -10 12 -26 17 -16 4 -25 4 -21 -2 8 -13 -10 -11 -24 3 -6 6 -15 8
-19 4 -11 -10 19 -27 40 -22 15 4 16 2 6 -10 -9 -11 -7 -14 10 -14 12 0 51 -9
86 -21 47 -15 69 -18 83 -10 14 7 19 7 19 -3 0 -7 -24 -21 -54 -30 -29 -9 -53
-19 -53 -22 0 -3 9 -3 20 0 11 3 30 9 42 12 20 6 21 5 10 -8 -17 -21 4 -38 54
-44 45 -6 58 -14 21 -14 -14 0 -29 -5 -32 -11 -4 -6 -13 -8 -20 -5 -20 7 -26
-5 -10 -20 8 -8 12 -21 9 -29 -4 -8 -1 -15 6 -15 6 0 9 4 5 9 -3 5 -1 12 5 16
6 4 8 10 5 15 -3 4 5 6 17 2 12 -3 17 -7 10 -10 -14 -4 -17 -42 -3 -42 5 0 11
5 13 11 2 7 12 7 28 1 19 -7 29 -6 39 6 13 14 16 13 29 -6 17 -25 42 -29 42
-7 0 8 5 15 11 15 5 0 7 4 4 10 -4 6 7 8 27 4 56 -10 63 -13 50 -26 -7 -7 -12
-16 -12 -20 0 -13 38 -9 43 5 2 6 8 9 12 5 10 -9 -23 -48 -40 -48 -16 0 -27
-27 -14 -35 5 -4 8 -1 7 6 -2 8 9 13 28 15 16 1 41 5 53 9 16 5 21 4 17 -4 -4
-6 -13 -11 -20 -11 -13 0 -30 -35 -27 -54 1 -5 -5 -4 -13 3 -9 7 -23 11 -31 7
-17 -6 -21 -46 -5 -46 16 0 11 -30 -6 -37 -8 -3 -13 -11 -10 -18 3 -8 -4 -12
-17 -11 -17 1 -23 -5 -25 -26 -3 -21 1 -28 14 -28 13 0 14 3 5 13 -12 15 -5
27 16 27 10 0 12 -6 8 -20 -7 -23 4 -26 25 -7 12 10 12 9 1 -5 -11 -15 -11
-18 0 -22 41 -13 69 -15 74 -5 4 6 13 8 21 5 7 -3 16 0 20 6 4 6 3 8 -3 5 -6
-4 -10 4 -10 20 0 24 1 25 12 10 13 -18 55 -23 55 -7 0 6 13 8 31 5 18 -3 28
-2 25 4 -4 5 1 17 10 25 8 9 11 16 5 16 -6 0 -11 5 -11 11 0 6 10 8 23 5 12
-3 16 -3 10 0 -20 9 -15 24 7 24 21 0 26 10 11 26 -6 5 -4 16 5 28 12 17 14
18 14 3 0 -10 8 -17 18 -17 13 0 14 2 3 9 -20 13 2 21 35 12 43 -11 37 -35
-10 -38 -45 -2 -57 -10 -30 -18 10 -4 27 -11 36 -16 10 -5 28 -9 41 -9 13 0
29 -6 36 -12 11 -11 12 -10 6 1 -4 8 -2 17 6 22 12 7 12 9 0 9 -11 0 -10 4 5
16 16 13 16 15 2 10 -10 -3 -18 -1 -18 4 0 14 24 12 38 -2 9 -9 18 -8 37 2 23
13 25 18 20 59 -6 44 -5 45 10 26 16 -19 16 -19 13 10 -3 26 -6 30 -30 27 -20
-2 -28 1 -28 12 0 20 20 32 30 16 10 -16 22 3 14 23 -5 14 -39 31 -56 28 -13
-2 -9 24 7 45 21 27 18 45 -10 84 -28 38 -34 60 -9 36 20 -21 41 -21 24 -1 -7
8 -8 15 -3 15 5 0 10 7 10 15 0 8 -7 15 -14 15 -8 0 -11 5 -8 10 3 6 -3 10
-14 10 -23 0 -28 16 -8 23 6 2 8 8 4 13 -4 4 -17 3 -27 -4 -17 -10 -20 -10
-20 3 0 8 -6 15 -14 15 -9 0 -12 8 -8 25 2 14 9 25 14 25 5 0 7 4 3 10 -3 5
-11 7 -18 5 -7 -3 -25 -1 -42 4 -29 9 -29 9 -4 10 17 1 30 10 39 26 14 27 5
49 -10 25 -7 -10 -10 -11 -10 -2 0 6 -5 12 -11 12 -7 0 -9 -10 -5 -25 8 -32
-7 -32 -29 1 -9 14 -19 23 -22 20 -3 -3 -12 6 -20 20 -16 32 -16 37 0 28 6 -4
-3 8 -21 26 -32 33 -57 36 -31 4 13 -16 12 -16 -8 -3 -13 8 -23 19 -23 25 0
14 -85 94 -100 94 -6 0 -8 5 -4 12 5 8 2 9 -10 5 -21 -8 -66 19 -66 40 0 9 6
13 15 10 26 -10 25 10 -1 22 -33 15 -37 14 -30 -4 6 -17 -12 -20 -34 -4 -11 8
-12 12 -2 16 24 9 12 22 -13 13 -20 -8 -27 -6 -35 10 -8 16 -19 19 -60 16 -27
-1 -47 1 -45 5 6 9 -82 22 -94 15 -5 -4 -22 -1 -38 5 -15 6 -55 12 -88 13 -33
2 -82 5 -110 9 -27 3 -63 2 -80 -2z m545 -120 c0 -11 3 -28 7 -38 3 -10 3 -15
-1 -12 -12 11 -25 69 -15 69 5 0 9 -9 9 -19z m-230 -131 c-11 -7 -5 -10 23
-10 22 0 36 -4 35 -11 -2 -7 9 -15 24 -19 33 -10 88 -48 88 -61 0 -6 -7 -3
-16 5 -23 23 -40 19 -19 -4 30 -33 7 -23 -43 19 -26 22 -67 45 -92 52 -25 7
-49 17 -55 22 -6 6 -1 7 14 2 16 -5 21 -4 17 4 -5 7 2 11 16 11 18 0 20 -2 8
-10z m61 -87 c13 -15 12 -15 -8 -4 -24 12 -29 21 -14 21 5 0 15 -7 22 -17z
m480 -20 c13 -16 12 -17 -3 -4 -10 7 -18 15 -18 17 0 8 8 3 21 -13z m117 -155
c15 -15 16 -38 2 -38 -5 0 -10 5 -10 11 0 7 -8 18 -17 25 -15 11 -16 13 -2 14
8 0 20 -5 27 -12z m-773 -18 c3 -5 2 -10 -4 -10 -5 0 -13 5 -16 10 -3 6 -2 10
4 10 5 0 13 -4 16 -10z m299 -25 c3 -9 0 -15 -9 -15 -9 0 -12 6 -9 15 4 8 7
15 9 15 2 0 5 -7 9 -15z m-244 -5 c8 -5 11 -10 5 -10 -5 0 -17 5 -25 10 -8 5
-10 10 -5 10 6 0 17 -5 25 -10z m70 -30 c0 -4 -11 -5 -25 -2 -14 2 -25 8 -25
12 0 4 11 5 25 2 14 -2 25 -8 25 -12z m145 -40 c12 -19 -12 -10 -31 11 -19 22
-19 22 3 10 12 -6 25 -16 28 -21z m75 -33 c0 -5 -4 -5 -10 -2 -5 3 -10 14 -10
23 0 15 2 15 10 2 5 -8 10 -19 10 -23z m485 3 c17 -19 17 -20 0 -20 -10 0 -15
3 -12 7 4 3 -1 12 -11 19 -9 7 -12 14 -6 14 6 0 19 -9 29 -20z m-515 -36 c-8
-8 -23 -20 -34 -25 -13 -7 -9 -1 9 15 34 29 43 33 25 10z m-70 -44 c-8 -5 -22
-10 -30 -10 -13 0 -13 1 0 10 8 5 22 10 30 10 13 0 13 -1 0 -10z m-40 -74 c0
-11 -19 -15 -25 -6 -3 5 1 10 9 10 9 0 16 -2 16 -4z m485 -16 c3 -5 1 -10 -4
-10 -6 0 -11 5 -11 10 0 6 2 10 4 10 3 0 8 -4 11 -10z m-95 -16 c0 -8 -4 -12
-10 -9 -5 3 -10 10 -10 16 0 5 5 9 10 9 6 0 10 -7 10 -16z m-52 -93 c10 -6 10
-10 -2 -20 -13 -11 -18 -10 -30 2 -23 23 2 37 32 18z m118 -38 c-10 -10 -19 5
-10 18 6 11 8 11 12 0 2 -7 1 -15 -2 -18z m-83 -22 c-4 -15 34 -14 40 2 4 9 8
9 16 -3 14 -21 3 -31 -27 -26 -15 2 -32 5 -37 5 -6 1 -11 10 -12 22 -1 12 3
18 10 16 7 -3 11 -10 10 -16z m-89 -47 c9 -24 -2 -34 -37 -34 -31 1 -31 1 -9
13 17 10 20 15 10 25 -9 9 -7 12 9 12 11 0 24 -7 27 -16z m-39 -54 c3 -5 1
-10 -4 -10 -6 0 -11 5 -11 10 0 6 2 10 4 10 3 0 8 -4 11 -10z m105 0 c0 -5 -4
-10 -10 -10 -5 0 -10 5 -10 10 0 6 5 10 10 10 6 0 10 -4 10 -10z"/>
<path d="M3330 5866 c0 -2 7 -7 16 -10 8 -3 12 -2 9 4 -6 10 -25 14 -25 6z"/>
<path d="M3300 5840 c8 -5 24 -10 35 -10 17 0 17 2 5 10 -8 5 -24 10 -35 10
-17 0 -17 -2 -5 -10z"/>
<path d="M3938 5811 c12 -11 22 -22 22 -26 0 -4 -7 -2 -15 5 -11 10 -17 9 -29
-3 -15 -14 -12 -27 6 -27 5 0 6 5 3 10 -3 6 -2 10 4 10 5 0 13 -5 16 -11 4 -6
13 -8 21 -5 8 3 17 -1 20 -8 3 -8 14 -12 25 -9 10 3 17 9 14 13 -3 5 1 11 7
14 7 3 3 3 -9 1 -14 -4 -26 1 -35 12 -7 10 -26 24 -43 31 l-30 12 23 -19z"/>
<path d="M3250 5786 c0 -2 11 -6 25 -8 13 -3 22 -1 19 3 -5 9 -44 13 -44 5z"/>
<path d="M3077 5743 c-12 -12 -7 -22 8 -17 8 4 15 10 15 15 0 11 -14 12 -23 2z"/>
<path d="M3285 5740 c3 -5 8 -10 11 -10 2 0 4 5 4 10 0 6 -5 10 -11 10 -5 0
-7 -4 -4 -10z"/>
<path d="M3018 5733 c6 -2 18 -2 25 0 6 3 1 5 -13 5 -14 0 -19 -2 -12 -5z"/>
<path d="M4070 5721 c0 -6 5 -13 10 -16 6 -3 10 1 10 9 0 9 -4 16 -10 16 -5 0
-10 -4 -10 -9z"/>
<path d="M2910 5670 c0 -5 5 -10 11 -10 5 0 7 5 4 10 -3 6 -8 10 -11 10 -2 0
-4 -4 -4 -10z"/>
<path d="M3125 5664 c-39 -13 -37 -13 57 -11 53 1 100 -2 104 -6 4 -4 -6 -7
-22 -7 -17 0 -35 -5 -42 -12 -7 -7 -12 -8 -12 -2 0 15 -173 5 -190 -12 -8 -8
-10 -15 -5 -15 6 -1 23 -3 40 -5 16 -2 36 3 45 10 16 14 89 13 181 -1 51 -9
55 -8 54 10 -2 24 -49 50 -95 53 -19 1 -44 4 -55 7 -11 3 -38 -1 -60 -9z m142
-40 c-3 -3 -12 -4 -19 -1 -8 3 -5 6 6 6 11 1 17 -2 13 -5z"/>
<path d="M2944 5620 c-1 -17 3 -30 7 -30 5 0 9 14 9 30 0 39 -15 39 -16 0z"/>
<path d="M2791 5636 c2 -2 22 -11 44 -20 l40 -16 -24 20 c-13 11 -32 20 -44
20 -11 0 -18 -2 -16 -4z"/>
<path d="M3033 5583 c-13 -2 -23 -9 -23 -14 0 -14 26 -11 40 6 7 8 11 14 9 14
-2 -1 -14 -4 -26 -6z"/>
<path d="M3375 5580 c27 -12 43 -12 25 0 -8 5 -22 9 -30 9 -10 0 -8 -3 5 -9z"/>
<path d="M2738 5573 c7 -3 16 -2 19 1 4 3 -2 6 -13 5 -11 0 -14 -3 -6 -6z"/>
<path d="M2927 5573 c-10 -3 -16 -10 -13 -16 3 -7 9 -20 12 -29 11 -30 24 -20
24 17 0 19 -1 34 -2 34 -2 -1 -11 -3 -21 -6z"/>
<path d="M3275 5570 c11 -5 35 -9 53 -9 18 -1 64 -17 103 -36 65 -32 98 -38
84 -14 -12 18 11 8 45 -20 19 -15 52 -34 73 -40 20 -7 37 -16 37 -20 0 -4 17
-8 37 -9 l37 -3 -50 39 c-27 22 -60 45 -74 51 -24 11 -24 11 -6 -3 11 -9 15
-16 9 -16 -6 0 -22 9 -36 20 -26 21 -63 26 -85 12 -7 -5 -36 3 -70 19 -33 15
-83 29 -117 32 -38 4 -53 3 -40 -3z"/>
<path d="M3115 5560 c3 -5 8 -10 11 -10 2 0 4 5 4 10 0 6 -5 10 -11 10 -5 0
-7 -4 -4 -10z"/>
<path d="M3463 5548 c11 -10 24 -15 31 -11 7 5 4 9 -9 11 -11 2 -25 7 -30 11
-6 3 -2 -2 8 -11z"/>
<path d="M2800 5520 c0 -12 40 -34 47 -26 9 8 -17 36 -33 36 -8 0 -14 -4 -14
-10z"/>
<path d="M3210 5520 c-9 -6 -10 -10 -3 -10 6 0 15 5 18 10 8 12 4 12 -15 0z"/>
<path d="M3277 5489 c7 -7 15 -10 18 -7 3 3 -2 9 -12 12 -14 6 -15 5 -6 -5z"/>
<path d="M3000 5310 c0 -13 11 -13 30 0 12 8 11 10 -7 10 -13 0 -23 -4 -23
-10z"/>
<path d="M3408 5263 c6 -2 18 -2 25 0 6 3 1 5 -13 5 -14 0 -19 -2 -12 -5z"/>
<path d="M3437 5182 c-21 -23 -22 -43 -1 -35 8 3 13 11 10 18 -2 7 1 18 7 24
6 6 9 11 6 11 -3 0 -13 -8 -22 -18z"/>
<path d="M3750 4990 c0 -5 7 -10 16 -10 8 0 12 5 9 10 -3 6 -10 10 -16 10 -5
0 -9 -4 -9 -10z"/>
<path d="M3790 4920 c0 -19 3 -21 12 -12 9 9 9 15 0 24 -9 9 -12 7 -12 -12z"/>
<path d="M4378 4870 c-3 -16 -1 -30 4 -30 4 0 8 14 8 30 0 17 -2 30 -4 30 -2
0 -6 -13 -8 -30z"/>
<path d="M4160 4869 c0 -5 5 -7 10 -4 6 3 10 8 10 11 0 2 -4 4 -10 4 -5 0 -10
-5 -10 -11z"/>
<path d="M4327 4874 c-3 -3 -3 -12 0 -20 4 -11 9 -12 19 -3 8 6 14 15 14 20 0
10 -24 12 -33 3z"/>
<path d="M4124 4838 c-3 -4 1 -8 8 -8 7 0 23 -3 34 -6 13 -3 23 0 27 8 3 10
-4 14 -30 14 -19 0 -37 -4 -39 -8z"/>
<path d="M3797 4678 c-12 -8 8 -13 28 -8 6 2 28 6 50 11 38 7 38 7 -13 6 -30
-1 -59 -5 -65 -9z"/>
<path d="M3748 4672 c-10 -2 -18 -8 -18 -13 0 -11 11 -11 30 1 18 11 11 18
-12 12z"/>
<path d="M4015 4670 c-3 -6 1 -7 9 -4 18 7 21 14 7 14 -6 0 -13 -4 -16 -10z"/>
<path d="M4010 4589 c0 -5 5 -7 10 -4 6 3 10 8 10 11 0 2 -4 4 -10 4 -5 0 -10
-5 -10 -11z"/>
<path d="M3931 4544 c0 -11 3 -14 6 -6 3 7 2 16 -1 19 -3 4 -6 -2 -5 -13z"/>
<path d="M3929 4505 c-15 -15 -45 -23 -97 -24 -19 -1 -22 -5 -17 -21 4 -11 2
-20 -4 -20 -6 0 -11 9 -11 21 0 11 -4 17 -10 14 -13 -8 -6 -48 8 -53 7 -2 10
-8 6 -13 -5 -8 9 -13 29 -10 4 0 7 -6 7 -14 0 -20 5 -19 42 8 19 13 32 18 35
11 4 -12 53 -6 53 6 0 5 9 6 20 3 16 -4 19 -2 13 13 -5 13 -3 16 10 11 9 -3
17 -2 17 3 0 5 7 7 15 4 8 -4 15 -1 15 5 0 9 5 9 21 1 30 -16 53 -6 40 19 -13
23 -90 45 -97 27 -2 -6 -17 -11 -32 -10 -39 2 -40 3 -44 19 -3 14 -5 14 -19 0z
m-12 -41 c-3 -3 -12 -4 -19 -1 -8 3 -5 6 6 6 11 1 17 -2 13 -5z"/>
<path d="M3406 4450 c-18 -6 -18 -7 -2 -13 10 -4 25 -3 33 1 21 12 -5 22 -31
12z"/>
<path d="M3513 4433 c9 -2 23 -2 30 0 6 3 -1 5 -18 5 -16 0 -22 -2 -12 -5z"/>
<path d="M3640 4430 c0 -5 4 -10 9 -10 6 0 13 5 16 10 3 6 -1 10 -9 10 -9 0
-16 -4 -16 -10z"/>
<path d="M3395 4420 c3 -5 8 -10 11 -10 2 0 4 5 4 10 0 6 -5 10 -11 10 -5 0
-7 -4 -4 -10z"/>
<path d="M3570 4426 c0 -8 51 -13 56 -5 3 5 -9 9 -25 9 -17 0 -31 -2 -31 -4z"/>
<path d="M3434 4373 c1 -43 4 -53 19 -53 18 0 23 15 8 24 -5 3 -7 15 -4 26 3
11 1 20 -5 20 -6 0 -12 8 -14 18 -3 9 -4 -7 -4 -35z"/>
<path d="M3520 4400 c0 -5 5 -10 12 -10 6 0 2 -9 -10 -20 -25 -24 -29 -50 -7
-50 8 0 15 5 15 11 0 5 5 7 10 4 8 -5 7 -11 -1 -21 -17 -20 -6 -27 30 -19 32
7 39 19 20 31 -6 3 -8 15 -6 26 4 15 1 18 -14 13 -14 -5 -20 -2 -18 7 3 27 -1
38 -16 38 -8 0 -15 -4 -15 -10z"/>
<path d="M3609 4378 c-8 -16 -3 -48 7 -48 20 0 44 11 44 21 0 4 -7 6 -15 3 -9
-4 -15 0 -15 10 0 13 -16 23 -21 14z"/>
<path d="M3648 4317 c8 -10 4 -16 -19 -26 l-30 -13 27 -14 c37 -20 47 -17 33
8 -10 19 -9 20 7 13 11 -4 30 -9 44 -11 14 -2 17 -1 7 2 -9 3 -14 10 -11 15 8
13 -25 38 -50 39 -14 0 -16 -3 -8 -13z m47 -17 c3 -5 1 -10 -4 -10 -6 0 -11 5
-11 10 0 6 2 10 4 10 3 0 8 -4 11 -10z"/>
<path d="M3830 4300 c0 -5 7 -10 15 -10 8 0 15 5 15 10 0 6 -7 10 -15 10 -8 0
-15 -4 -15 -10z"/>
<path d="M4325 4214 c63 -17 81 -17 35 1 -19 7 -46 13 -60 13 -15 0 -5 -5 25
-14z"/>
<path d="M3675 4210 c-3 -5 1 -10 10 -10 9 0 13 5 10 10 -3 6 -8 10 -10 10 -2
0 -7 -4 -10 -10z"/>
<path d="M4215 4179 c-6 -9 -2 -11 13 -7 13 4 23 0 26 -8 4 -9 -2 -14 -18 -14
-12 0 -31 -9 -41 -20 -10 -12 -25 -18 -32 -15 -18 6 -5 -16 19 -33 25 -18 23
-36 -2 -22 -11 6 -26 8 -32 4 -6 -4 -8 -3 -5 3 7 12 -20 46 -43 55 -10 4 -15
-2 -16 -18 -1 -13 2 -24 8 -24 5 0 6 6 2 13 -5 8 -2 8 9 -2 25 -20 21 -38 -10
-46 -21 -5 -32 -2 -45 15 -12 15 -27 20 -55 19 -21 -1 -49 2 -62 6 -17 6 -22
5 -17 -3 10 -16 -24 -31 -50 -22 -15 6 -24 5 -26 -2 -2 -6 -19 -12 -37 -13
-30 -2 -35 2 -51 39 -19 41 -19 41 -13 7 5 -25 2 -37 -11 -46 -9 -7 -16 -17
-15 -21 4 -25 -3 -32 -25 -28 -14 2 -28 0 -31 -6 -11 -18 -53 -11 -70 13 -9
13 -18 18 -23 12 -15 -21 -60 -45 -64 -33 -2 6 -13 12 -24 13 -21 1 -84 44
-68 46 5 0 -2 4 -14 10 -34 13 -47 0 -21 -22 26 -22 13 -25 -15 -4 -26 20 -37
19 -29 -2 4 -11 3 -14 -5 -9 -7 4 -12 14 -12 22 0 8 -4 14 -10 14 -5 0 -10 -4
-10 -8 0 -4 -19 -9 -42 -10 -24 -1 -65 -5 -93 -9 -42 -5 -46 -7 -25 -14 14 -4
44 -7 66 -8 70 -2 267 -40 276 -53 5 -7 7 -25 5 -39 -4 -32 22 -53 40 -34 7 7
9 16 5 20 -7 7 11 6 145 -14 34 -5 51 -4 50 3 -1 5 6 12 16 14 13 3 18 -2 17
-15 -1 -10 -1 -21 0 -25 5 -17 7 -25 14 -83 10 -77 27 -125 44 -125 7 0 19
-15 27 -34 8 -19 19 -38 25 -41 6 -4 8 -10 5 -15 -8 -12 24 -28 45 -23 12 3
36 -13 71 -49 54 -53 90 -81 142 -107 16 -9 27 -23 27 -35 1 -16 5 -13 18 14
10 19 14 37 10 38 -4 2 -8 15 -8 28 0 14 4 23 9 19 18 -10 18 10 1 40 -10 17
-23 29 -29 27 -7 -1 -19 4 -27 13 -9 8 -26 15 -39 15 l-24 0 24 26 c14 15 25
31 25 35 0 5 5 9 10 9 6 0 21 9 33 20 12 11 27 18 34 16 7 -3 13 1 13 9 0 8
-9 15 -19 15 -10 0 -21 7 -25 15 -3 8 -14 15 -24 15 -24 0 -32 8 -25 27 5 12
7 12 14 1 6 -9 11 -10 17 -2 13 20 41 24 50 7 11 -18 52 -9 52 12 0 8 15 17
38 21 20 4 49 13 64 20 37 19 47 18 57 -8 6 -17 21 -25 67 -34 32 -6 61 -10
62 -9 9 8 -107 108 -143 124 -59 27 -68 29 -178 52 -99 20 -144 21 -249 3 -25
-4 -38 -2 -38 5 0 12 9 14 118 32 39 7 70 14 68 16 -3 3 -32 6 -66 7 -40 2
-57 0 -48 -6 9 -7 4 -8 -14 -5 -15 2 -29 0 -30 -4 -2 -5 -14 -10 -28 -12 -26
-4 -43 -47 -19 -47 6 0 -5 -16 -26 -35 -32 -30 -36 -39 -29 -63 4 -15 7 -30 6
-34 -1 -5 5 -8 13 -8 20 0 32 -30 16 -39 -8 -5 -4 -25 14 -69 14 -34 25 -65
25 -68 0 -10 -48 57 -63 89 -7 15 -17 24 -22 20 -4 -5 -5 -2 -1 5 4 7 -1 40
-12 75 -66 206 -66 199 21 215 135 27 268 42 397 48 74 3 152 10 172 16 34 10
36 12 20 25 -16 13 -15 14 6 8 12 -4 22 -2 22 4 0 5 -13 12 -30 16 -16 4 -30
11 -30 17 0 6 -7 7 -16 4 -8 -3 -12 -2 -9 4 3 6 -5 10 -19 10 -15 0 -25 5 -23
12 1 7 -2 12 -8 13 -5 0 -15 3 -20 7 -23 15 -83 20 -90 7z m180 -88 c3 -5 -4
-13 -16 -16 -23 -8 -34 -1 -24 14 8 13 32 14 40 2z m-545 -66 c11 -13 10 -14
-4 -9 -9 3 -16 10 -16 15 0 13 6 11 20 -6z m-426 -21 c5 -14 4 -15 -9 -4 -17
14 -19 20 -6 20 5 0 12 -7 15 -16z m860 -171 c-13 -10 -20 -10 -23 -2 -4 14
19 30 33 22 5 -3 1 -12 -10 -20z m-147 -20 c-3 -3 -11 -2 -17 2 -8 5 -7 11 2
22 12 15 13 14 16 -1 2 -10 1 -20 -1 -23z m-318 -83 c11 -24 11 -24 -3 -6 -9
11 -16 24 -16 30 0 12 5 7 19 -24z m281 10 c0 -5 -4 -10 -10 -10 -5 0 -10 5
-10 10 0 6 5 10 10 10 6 0 10 -4 10 -10z m60 -350 c0 -5 -4 -10 -9 -10 -6 0
-13 5 -16 10 -3 6 1 10 9 10 9 0 16 -4 16 -10z"/>
<path d="M4732 4075 c-11 -13 -10 -15 7 -15 14 0 19 5 15 15 -7 18 -6 18 -22
0z"/>
<path d="M4797 4055 c-16 -23 -16 -24 -1 -18 14 5 16 3 11 -12 -6 -14 -5 -16
6 -6 8 6 27 8 44 5 35 -7 51 9 32 32 -8 10 -21 13 -36 9 -13 -3 -23 -1 -23 5
0 17 -14 11 -33 -15z"/>
<path d="M3054 4049 c-3 -6 1 -18 9 -26 14 -14 17 -14 34 2 17 18 17 18 -5 13
-18 -5 -22 -3 -18 8 6 16 -10 19 -20 3z"/>
<path d="M3451 4014 c0 -11 3 -14 6 -6 3 7 2 16 -1 19 -3 4 -6 -2 -5 -13z"/>
<path d="M4383 3996 c27 -29 38 -35 70 -33 30 2 34 4 22 13 -13 9 -13 13 -3
17 7 3 -6 3 -29 1 -33 -4 -43 -1 -43 10 0 7 -7 17 -16 20 -33 12 -33 5 -1 -28z"/>
<path d="M4175 4004 c11 -8 26 -12 33 -9 8 3 25 5 39 5 46 0 18 10 -38 14 -48
3 -51 2 -34 -10z"/>
<path d="M4285 3990 l-40 -7 37 -2 c20 0 40 4 43 9 3 6 5 9 3 9 -2 -1 -21 -5
-43 -9z"/>
<path d="M4798 3977 c-3 -19 -2 -25 4 -19 6 6 8 18 6 28 -3 14 -5 12 -10 -9z"/>
<path d="M4178 3973 c7 -3 16 -2 19 1 4 3 -2 6 -13 5 -11 0 -14 -3 -6 -6z"/>
<path d="M4653 3930 c0 -30 2 -43 4 -27 2 15 2 39 0 55 -2 15 -4 2 -4 -28z"/>
<path d="M3145 3936 c35 -17 145 -21 145 -6 0 7 -20 10 -47 10 -27 -1 -66 1
-88 4 l-40 6 30 -14z"/>
<path d="M3023 3886 c-40 -7 -75 -15 -79 -19 -7 -7 55 -37 75 -37 6 0 14 -7
19 -16 8 -14 10 -14 21 0 18 21 26 20 28 -3 2 -26 -24 -34 -49 -17 -12 9 -33
12 -52 9 -38 -6 -88 32 -64 49 24 17 -35 -3 -67 -22 -36 -22 -93 -80 -78 -80
5 0 22 11 37 25 29 27 75 33 122 15 15 -6 49 -13 77 -15 27 -2 57 -11 66 -20
10 -8 22 -15 28 -15 6 0 13 -6 16 -14 3 -7 19 -16 36 -19 37 -8 40 -23 6 -31
-23 -6 -36 -36 -16 -36 13 0 95 -55 111 -75 16 -19 30 -11 23 15 -3 11 0 20 6
20 6 0 11 -7 11 -16 0 -14 2 -14 16 1 9 9 23 14 31 11 20 -8 45 52 32 77 -12
21 -3 53 22 86 19 24 27 67 10 57 -4 -3 -18 6 -31 19 -56 60 -189 79 -357 51z
m232 -17 c11 -17 2 -18 -19 -3 -17 12 -17 14 -4 14 9 0 20 -5 23 -11z m101
-59 c8 0 14 -5 14 -11 0 -10 -13 -5 -37 14 -7 5 -10 14 -6 21 5 7 9 5 11 -6 2
-10 10 -18 18 -18z m4 -120 c0 -5 -5 -10 -11 -10 -5 0 -7 5 -4 10 3 6 8 10 11
10 2 0 4 -4 4 -10z"/>
<path d="M4652 3845 c0 -16 2 -22 5 -12 2 9 2 23 0 30 -3 6 -5 -1 -5 -18z"/>
<path d="M3466 3849 c-2 -8 -14 -54 -26 -104 -12 -49 -32 -110 -46 -134 -32
-58 -30 -61 10 -22 42 41 100 164 99 210 -1 37 -29 76 -37 50z"/>
<path d="M3612 3659 c-2 -25 1 -29 23 -29 16 0 25 -6 25 -15 0 -29 20 -15 22
15 0 17 1 36 2 43 1 7 -13 13 -34 13 -33 2 -36 -1 -38 -27z m63 11 c3 -5 -3
-10 -15 -10 -12 0 -18 5 -15 10 3 6 10 10 15 10 5 0 12 -4 15 -10z"/>
<path d="M3600 3600 c0 -11 2 -20 4 -20 2 0 6 9 9 20 3 11 1 20 -4 20 -5 0 -9
-9 -9 -20z"/>
<path d="M3630 3581 c0 -5 -10 -11 -22 -13 -18 -2 -23 -10 -24 -33 -1 -16 2
-34 6 -40 4 -5 6 -28 4 -50 -3 -22 -6 -56 -8 -75 -2 -19 -6 -42 -9 -50 -13
-36 -13 -79 0 -84 16 -7 17 -46 1 -46 -6 0 -2 -10 10 -23 12 -13 22 -34 22
-48 0 -19 2 -21 10 -9 9 14 12 11 14 -19 1 -17 26 -28 26 -11 0 6 5 8 10 5 13
-8 13 8 -1 22 -8 8 -8 13 0 17 17 11 13 26 -4 20 -19 -8 -19 3 0 22 13 14 16
13 24 -8 6 -13 10 -18 10 -11 1 6 4 19 8 29 5 13 3 15 -7 9 -10 -6 -12 -3 -8
13 4 13 0 23 -9 26 -8 3 -11 11 -7 17 4 7 7 25 6 40 0 16 4 29 9 29 5 0 9 7 9
15 0 8 -5 15 -11 15 -6 0 -9 7 -5 15 3 9 0 15 -10 15 -12 0 -15 7 -12 25 3 14
1 28 -4 31 -4 3 -6 10 -2 15 3 5 9 7 13 5 4 -3 7 15 7 39 -1 25 -5 45 -10 45
-5 0 -6 14 -2 30 5 25 2 30 -14 30 -11 0 -20 -4 -20 -9z"/>
<path d="M3188 3553 c7 -3 16 -2 19 1 4 3 -2 6 -13 5 -11 0 -14 -3 -6 -6z"/>
<path d="M4843 3538 c-16 -20 -43 -122 -43 -162 0 -26 4 -36 16 -36 24 0 54
19 54 35 0 8 9 30 21 49 14 24 19 48 17 78 -3 38 -6 43 -29 46 -14 2 -30 -3
-36 -10z"/>
<path d="M3191 3503 c-31 -4 -77 -33 -52 -33 6 0 11 -10 11 -22 -1 -21 -2 -21
-11 -5 -12 21 -26 22 -46 1 -14 -13 -14 -17 -2 -25 10 -6 5 -8 -15 -6 -36 3
-54 -33 -29 -59 15 -14 17 -13 30 17 10 23 16 30 22 21 6 -10 10 -10 21 2 7 9
16 13 21 11 4 -3 15 8 24 24 14 27 14 31 -1 39 -15 8 -15 10 0 15 11 4 15 3
10 -4 -4 -7 0 -7 12 -1 11 6 30 15 44 20 26 11 19 12 -39 5z"/>
<path d="M3190 3445 c0 -8 2 -15 4 -15 2 0 6 7 10 15 3 8 1 15 -4 15 -6 0 -10
-7 -10 -15z"/>
<path d="M2197 3443 c-7 -12 9 -46 29 -65 19 -16 51 -27 55 -18 4 10 -14 55
-29 73 -15 17 -47 23 -55 10z"/>
<path d="M4210 3410 c-6 -12 -8 -30 -5 -41 4 -13 2 -19 -7 -17 -7 2 -11 -4
-10 -12 10 -41 10 -70 1 -70 -6 0 -7 -5 -4 -10 7 -12 45 26 45 44 0 6 -4 4
-10 -4 -5 -8 -12 -12 -15 -8 -3 3 2 13 11 23 17 16 18 16 27 -6 9 -23 9 -23
17 -4 7 17 9 17 9 3 1 -17 20 -26 22 -10 8 56 4 67 -24 68 -36 2 -56 19 -39
36 14 14 16 28 2 28 -5 0 -14 -9 -20 -20z"/>
<path d="M4296 3405 c-8 -22 -3 -28 19 -23 14 3 14 5 2 22 -13 18 -14 18 -21
1z"/>
<path d="M3840 3250 c0 -5 -7 -10 -15 -10 -8 0 -15 -8 -15 -18 0 -10 -4 -22
-9 -27 -10 -11 4 -55 17 -55 5 0 29 14 54 30 37 25 44 34 41 54 -6 29 -73 53
-73 26z"/>
<path d="M4186 3204 c-4 -10 -1 -14 6 -12 15 5 23 28 10 28 -5 0 -13 -7 -16
-16z"/>
<path d="M4052 3203 c-6 -2 -10 -9 -6 -14 3 -5 12 -5 23 1 10 5 22 6 26 2 5
-4 5 -1 1 6 -7 12 -22 14 -44 5z"/>
<path d="M4000 3175 c0 -8 5 -15 10 -15 6 0 10 7 10 15 0 8 -4 15 -10 15 -5 0
-10 -7 -10 -15z"/>
<path d="M3370 3036 c0 -12 87 -66 106 -66 11 0 1 19 -25 48 -32 34 -81 45
-81 18z"/>
<path d="M3786 3008 c-62 -72 -60 -68 -42 -86 11 -11 16 -12 16 -4 0 7 5 10
10 7 6 -4 9 -3 8 2 -4 15 27 53 43 53 9 0 28 9 43 21 21 17 24 24 15 35 -21
26 -55 16 -93 -28z"/>
<path d="M4044 2970 c0 -11 4 -20 9 -20 4 0 15 0 25 0 13 0 14 2 3 9 -7 5 -10
14 -7 20 4 7 0 11 -12 11 -13 0 -19 -7 -18 -20z"/>
<path d="M3835 2966 c-5 -7 -16 -22 -22 -34 -11 -18 -11 -20 4 -15 12 5 14 3
8 -8 -7 -11 -6 -12 6 -3 8 6 26 14 42 18 26 6 38 26 15 26 -6 0 -19 6 -27 14
-12 11 -18 11 -26 2z"/>
<path d="M4117 2964 c-8 -8 1 -24 14 -24 5 0 9 7 9 15 0 15 -12 20 -23 9z"/>
<path d="M4060 2933 c0 -17 16 -30 42 -35 l28 -5 -26 23 c-25 24 -44 31 -44
17z"/>
<path d="M3535 2910 c-3 -6 1 -7 9 -4 18 7 21 14 7 14 -6 0 -13 -4 -16 -10z"/>
<path d="M3720 2900 c0 -5 5 -10 11 -10 5 0 7 5 4 10 -3 6 -8 10 -11 10 -2 0
-4 -4 -4 -10z"/>
<path d="M3965 2871 c-3 -5 -1 -12 5 -16 5 -3 10 1 10 9 0 18 -6 21 -15 7z"/>
<path d="M3840 2773 c0 -4 5 -15 10 -23 8 -13 10 -13 10 2 0 9 -4 20 -10 23
-5 3 -10 3 -10 -2z"/>
<path d="M3797 2749 c3 -10 9 -16 14 -13 13 8 11 21 -5 27 -10 4 -12 0 -9 -14z"/>
<path d="M3658 2680 c-3 -14 -9 -34 -12 -45 -4 -11 0 -7 9 8 9 16 15 36 13 45
-3 12 -6 10 -10 -8z"/>
<path d="M3742 2669 c1 -12 8 -24 15 -26 7 -3 9 3 6 17 -8 29 -25 37 -21 9z"/>
<path d="M3592 2640 c-15 -24 -15 -40 -2 -40 6 0 9 3 8 8 0 4 2 15 7 25 11 25
2 30 -13 7z"/>
<path d="M3548 2623 c7 -3 16 -2 19 1 4 3 -2 6 -13 5 -11 0 -14 -3 -6 -6z"/>
<path d="M3663 2554 c-3 -9 0 -20 8 -25 9 -6 0 -9 -29 -9 -29 0 -44 5 -48 15
-4 8 -12 15 -20 15 -8 0 -14 -7 -14 -15 0 -9 -10 -15 -26 -15 -14 0 -23 4 -19
10 3 6 13 10 21 10 8 0 12 5 9 10 -4 7 -13 7 -26 0 -11 -6 -24 -8 -29 -5 -6 3
-7 -1 -4 -9 5 -14 -8 -16 -94 -16 -56 0 -103 4 -106 9 -3 5 -27 12 -53 17 -55
9 -61 9 -87 -2 -15 -6 -17 -4 -11 7 5 8 -1 6 -13 -4 -11 -11 -26 -16 -32 -12
-7 4 -10 1 -9 -6 1 -8 -1 -22 -6 -32 -4 -9 -4 -34 0 -54 l6 -36 27 54 c22 44
32 55 55 57 16 2 39 -4 52 -12 31 -20 46 -20 38 0 -5 12 -1 15 13 11 10 -3 44
-10 74 -16 30 -5 67 -14 82 -20 15 -6 34 -8 42 -5 17 7 68 -25 60 -37 -3 -5 1
-9 8 -9 7 -1 -3 -9 -22 -20 -19 -11 -33 -20 -30 -20 35 -9 230 -9 271 0 30 6
61 12 69 13 9 2 21 6 28 11 6 4 12 4 12 0 0 -3 7 -1 15 6 8 6 18 9 24 6 5 -3
11 1 15 9 3 8 12 15 19 15 8 0 26 9 41 21 16 12 35 19 46 16 11 -3 20 -1 20 5
0 5 10 8 23 6 16 -2 21 -9 20 -26 -2 -14 1 -21 8 -17 6 4 9 1 7 -7 -3 -15 28
-58 52 -73 12 -7 13 -6 3 6 -8 10 -9 27 -3 52 6 30 -3 109 -15 125 -8 10 -80
11 -91 1 -8 -6 -14 -9 -14 -6 0 3 -16 1 -35 -3 -20 -4 -52 -3 -76 2 -29 8 -43
8 -52 -1 -8 -8 -5 -11 14 -12 13 -1 30 -1 38 0 7 2 11 -1 8 -6 -8 -12 -217
-10 -214 2 1 6 11 10 22 11 11 0 26 3 32 7 6 4 14 1 16 -5 3 -8 6 -6 6 5 1 14
-8 17 -59 17 -46 0 -62 -4 -67 -16z m203 -87 c4 -4 -9 -7 -29 -7 -31 0 -37 -3
-37 -21 0 -14 -5 -19 -14 -16 -8 3 -17 -1 -20 -10 -8 -19 -19 -10 -21 17 -1
13 5 20 16 20 9 0 19 6 22 14 5 14 70 16 83 3z m-299 -39 c-3 -7 -5 -2 -5 12
0 14 2 19 5 13 2 -7 2 -19 0 -25z"/>
<path d="M3037 2393 c-6 -32 0 -44 12 -24 7 11 10 11 14 0 4 -11 6 -11 6 1 0
8 -6 23 -13 33 -13 16 -14 15 -19 -10z"/>
<path d="M4087 2403 c-12 -12 -7 -19 14 -20 17 -2 18 1 9 13 -14 16 -14 16
-23 7z"/>
<path d="M4690 2234 c0 -14 4 -23 9 -20 5 3 7 15 4 26 -7 28 -13 25 -13 -6z"/>
<path d="M4678 2046 c2 -68 -1 -154 -7 -192 -7 -38 -18 -112 -27 -164 -10 -64
-25 -118 -48 -165 -40 -84 -74 -207 -59 -212 6 -2 8 -14 5 -26 -3 -12 -2 -20
1 -17 11 10 74 137 92 185 10 28 22 55 27 62 5 6 13 33 18 60 4 26 18 93 29
148 12 55 26 123 31 152 5 29 14 61 19 72 6 11 11 37 10 58 0 40 -30 125 -43
123 -4 -1 -16 8 -25 19 -10 12 -20 21 -22 21 -2 0 -2 -56 -1 -124z"/>
<path d="M3654 2152 c4 -7 2 -21 -5 -30 -12 -15 -11 -15 6 0 16 15 17 20 6 30
-11 11 -13 10 -7 0z"/>
<path d="M3763 2125 c-7 -16 -8 -27 -1 -31 14 -9 20 1 16 30 l-3 26 -12 -25z"/>
<path d="M3811 2137 c-8 -10 -7 -14 4 -14 8 0 16 6 19 14 3 7 2 13 -3 13 -5 0
-14 -6 -20 -13z"/>
<path d="M4418 2042 c-10 -2 -18 -8 -18 -13 0 -11 11 -11 30 1 18 11 11 18
-12 12z"/>
<path d="M4480 2003 c-86 -97 -114 -123 -132 -123 -20 0 -19 5 16 52 16 22 17
32 8 50 -6 13 -11 17 -11 9 -1 -19 -116 -125 -184 -169 -32 -20 -86 -59 -120
-87 -34 -27 -66 -50 -72 -51 -24 -3 -55 -17 -55 -25 0 -5 -7 -9 -15 -9 -17 0
-20 -17 -4 -22 31 -10 -65 -88 -110 -88 -12 0 -24 -7 -27 -15 -9 -21 -47 -19
-89 6 -29 17 -41 20 -58 11 -39 -19 -50 -15 -292 98 -33 16 -82 38 -110 49
-27 11 -88 36 -135 55 -87 37 -110 43 -110 27 0 -5 -10 -7 -22 -4 -22 6 -22 5
2 -14 14 -11 54 -39 90 -63 36 -24 121 -87 190 -140 135 -105 189 -136 318
-185 l84 -31 106 36 c173 58 236 96 408 242 96 82 193 185 264 283 24 33 51
68 60 77 18 19 53 78 47 78 -3 0 -23 -21 -47 -47z m-525 -363 c-3 -5 -12 -10
-18 -10 -7 0 -6 4 3 10 19 12 23 12 15 0z m-390 -120 c8 -13 -35 -13 -55 0
-11 7 -7 10 17 10 17 0 35 -4 38 -10z"/>
<path d="M4970 1871 c0 -18 30 -91 85 -209 44 -91 63 -122 77 -122 18 0 27
-12 32 -46 1 -9 10 -22 19 -29 9 -7 17 -22 17 -35 0 -13 8 -24 20 -27 12 -3
33 -32 54 -74 19 -38 44 -82 55 -98 28 -39 72 -144 111 -266 18 -55 45 -139
61 -187 52 -154 88 -441 89 -690 l0 -88 62 0 61 0 -6 191 c-11 312 -37 451
-157 839 -35 112 -81 211 -192 410 -115 206 -197 308 -320 398 -59 44 -68 48
-68 33z"/>
<path d="M2514 1783 c-3 -16 -12 -48 -19 -73 -37 -126 -38 -138 -10 -197 25
-55 94 -157 101 -150 2 2 -8 37 -22 77 -30 87 -44 197 -38 298 5 73 -1 94 -12
45z"/>
<path d="M2152 1648 c-87 -127 -158 -345 -206 -634 -25 -149 -33 -178 -58
-219 -7 -11 -14 -22 -15 -24 -1 -1 -33 2 -72 9 -82 14 -163 -2 -231 -45 -92
-58 -254 -337 -319 -552 -24 -76 -36 -103 -51 -108 -20 -6 -25 -17 -13 -28 3
-4 12 -2 20 4 9 8 17 8 26 0 8 -6 17 -8 20 -4 4 3 9 -2 13 -11 7 -19 33 -21
39 -3 2 6 18 62 35 122 35 119 126 308 188 389 121 160 320 176 494 40 52 -40
118 -128 145 -192 9 -20 18 -31 20 -25 3 7 -5 29 -17 48 -12 19 -20 45 -18 57
3 21 5 20 26 -14 38 -61 48 -172 31 -327 l-14 -131 51 0 c45 0 53 3 57 23 15
60 8 308 -10 357 -4 12 -7 11 -13 -5 -7 -16 -9 -14 -10 15 -1 19 -7 52 -13 72
-15 48 -115 158 -193 214 -83 59 -87 65 -73 100 6 16 12 63 14 104 1 41 1 60
-2 43 -2 -18 -8 -33 -13 -33 -9 0 -8 15 12 150 10 72 13 80 18 50 l6 -35 7 45
c5 25 16 74 27 110 10 36 21 81 25 101 3 21 16 53 29 72 16 23 28 62 36 114 6
43 18 103 25 133 8 30 13 56 11 58 -2 2 -17 -16 -34 -40z"/>
<path d="M3860 1630 c0 -5 5 -10 10 -10 6 0 10 5 10 10 0 6 -4 10 -10 10 -5 0
-10 -4 -10 -10z"/>
<path d="M3397 1308 c-56 -69 -142 -206 -207 -331 -34 -65 -60 -117 -58 -117
2 0 19 11 37 24 39 29 69 24 83 -15 12 -34 47 -39 94 -14 16 8 35 15 42 15 17
0 15 -25 -4 -41 -10 -8 -13 -21 -9 -37 4 -17 -3 -43 -22 -81 -23 -46 -28 -67
-26 -121 l2 -64 -47 -48 c-26 -26 -53 -48 -59 -48 -7 0 -13 -3 -13 -6 0 -14
84 -171 177 -332 l54 -92 308 0 309 0 21 49 c35 83 23 189 -18 148 -7 -7 -16
2 -30 34 -12 24 -21 54 -21 66 0 12 22 67 49 122 27 55 54 117 61 138 7 21 19
48 26 60 17 28 31 143 17 143 -5 0 -20 -11 -33 -25 -17 -18 -27 -22 -36 -14
-14 12 -74 -14 -74 -32 0 -6 -5 -7 -11 -3 -7 4 -25 8 -40 10 -33 4 -49 -17
-49 -65 0 -25 -4 -31 -20 -31 -17 0 -19 3 -10 19 15 28 13 94 -2 89 -7 -3 -14
-10 -14 -16 -1 -7 -2 -20 -3 -29 -2 -15 -4 -14 -11 5 -12 29 -3 52 20 52 12 0
22 12 30 35 9 27 15 33 24 26 9 -8 25 2 57 35 80 83 159 127 159 89 0 -9 6
-18 14 -21 8 -3 16 -18 19 -33 10 -48 50 -34 92 32 l18 28 -101 102 c-55 56
-126 133 -159 171 -32 38 -72 85 -88 104 l-31 34 -204 2 c-135 2 -212 6 -227
14 -35 19 -50 14 -86 -30z m253 -421 c0 -7 5 -18 12 -25 6 -6 13 -17 14 -24 2
-7 6 -23 9 -34 6 -18 1 -23 -25 -33 -39 -13 -50 -8 -43 20 5 18 3 20 -16 14
-28 -8 -27 -2 5 30 17 17 24 33 21 46 -3 12 0 19 9 19 8 0 14 -6 14 -13z
m-186 -43 c9 -3 16 -12 16 -20 0 -8 6 -14 13 -14 6 0 20 -14 30 -31 10 -18 20
-29 24 -26 3 4 15 -5 25 -19 20 -25 20 -25 -1 -67 -11 -23 -32 -80 -46 -127
-31 -106 -123 -274 -153 -278 -42 -6 -41 78 3 142 22 33 25 48 27 149 1 61 5
117 8 122 13 18 33 134 27 155 -5 21 1 24 27 14z m213 -125 c-9 -6 -17 -18
-17 -28 0 -10 -7 -38 -16 -62 -8 -24 -17 -52 -19 -61 -5 -22 -30 -59 -36 -53
-3 2 -5 -4 -6 -13 -1 -26 -10 -59 -22 -79 -5 -11 -6 -25 -1 -33 6 -9 2 -25
-10 -45 -11 -18 -17 -40 -14 -52 3 -12 0 -31 -6 -43 -10 -18 -10 -21 2 -15 10
6 11 5 1 -6 -7 -7 -13 -20 -13 -29 0 -8 -11 -27 -25 -42 -14 -15 -24 -33 -23
-39 2 -6 -5 -13 -14 -14 -23 -4 -23 7 1 108 11 45 25 109 31 142 16 82 45 144
81 174 38 31 53 60 69 131 11 51 36 88 49 74 3 -3 -2 -10 -12 -15z m-121 -403
c0 -14 -5 -21 -9 -17 -4 4 -5 15 -1 24 9 24 12 21 10 -7z"/>
<path d="M4195 800 c3 -5 10 -10 16 -10 5 0 9 5 9 10 0 6 -7 10 -16 10 -8 0
-12 -4 -9 -10z"/>
<path d="M4202 760 c0 -14 2 -19 5 -12 2 6 2 18 0 25 -3 6 -5 1 -5 -13z"/>
<path d="M3052 748 c-15 -15 -15 -37 2 -66 12 -22 13 -21 15 27 2 55 1 57 -17
39z"/>
<path d="M4212 382 c-6 -20 -17 -58 -26 -84 -8 -27 -13 -48 -11 -48 6 0 75
137 75 149 0 5 -6 11 -14 14 -9 4 -17 -6 -24 -31z"/>
<path d="M2177 103 c-13 -44 -18 -103 -9 -103 5 0 12 25 16 56 6 57 3 82 -7
47z"/>
</g>
</svg>
