<svg width="32" height="32" viewBox="0 0 32 32" fill="none" xmlns="http://www.w3.org/2000/svg"><rect width="32" height="32" rx="8" fill="#e0f7fa"/><path d="M16 8a8 8 0 00-6.93 12.14l-1.07 3.21a1 1 0 001.28 1.28l3.21-1.07A8 8 0 1016 8zm0 14a6 6 0 01-3.16-.91l-.23-.14-2.13.71.71-2.13-.14-.23A6 6 0 1116 22zm3.54-4.46a1 1 0 00-1.41 0l-.71.71a5.02 5.02 0 01-2.12-2.12l.71-.71a1 1 0 000-1.41l-1.17-1.17a1 1 0 00-1.41 0A4.98 4.98 0 0012 16c0 2.76 2.24 5 5 5 .55 0 1.08-.09 1.58-.26a1 1 0 000-1.41l-1.17-1.17z" fill="#25D366"/></svg>